<?xml version="1.0" encoding="UTF-8"?>
<svg xmlns="http://www.w3.org/2000/svg" xmlns:xlink="http://www.w3.org/1999/xlink" width="16px" height="16px" viewBox="0 0 16 16" version="1.1">
<g id="surface1">
<path style=" stroke:none;fill-rule:nonzero;fill:rgb(100%,81.960785%,5.882353%);fill-opacity:1;" d="M 0.492188 12.265625 L 0.484375 12.785156 L 0.484375 12.945312 L 0.492188 13.078125 C 0.492188 13.148438 0.511719 13.296875 0.527344 13.40625 C 0.601562 13.855469 0.761719 14.257812 1.007812 14.625 C 1.25 14.988281 1.570312 15.296875 1.945312 15.53125 C 2.3125 15.761719 2.734375 15.914062 3.167969 15.96875 C 3.273438 15.992188 3.382812 15.992188 3.492188 15.996094 C 3.542969 15.996094 3.605469 16 3.648438 16 L 3.777344 15.996094 L 4.296875 15.984375 C 4.988281 15.96875 5.679688 15.945312 6.367188 15.910156 C 7.148438 15.871094 7.800781 15.722656 7.742188 15.429688 C 7.6875 15.15625 7.132812 14.960938 6.328125 14.929688 C 5.609375 14.902344 4.882812 14.875 4.15625 14.851562 L 3.617188 14.835938 C 3.542969 14.828125 3.46875 14.824219 3.398438 14.8125 C 3.328125 14.796875 3.257812 14.796875 3.1875 14.773438 C 2.914062 14.703125 2.65625 14.578125 2.429688 14.40625 C 2.070312 14.125 1.804688 13.71875 1.699219 13.273438 L 1.671875 13.125 C 1.664062 13.105469 1.664062 13.066406 1.664062 13.03125 L 1.65625 12.921875 L 1.65625 12.835938 L 1.648438 12.726562 L 1.648438 12.511719 L 1.632812 11.636719 L 1.558594 8.140625 C 1.65625 7.097656 1.710938 6.046875 1.742188 4.992188 C 1.757812 4.464844 1.773438 3.9375 1.777344 3.410156 L 1.78125 3.011719 L 1.78125 2.914062 L 1.789062 2.839844 C 1.792969 2.789062 1.789062 2.742188 1.800781 2.691406 C 1.820312 2.496094 1.882812 2.3125 1.96875 2.132812 C 2.128906 1.78125 2.421875 1.484375 2.765625 1.296875 L 2.890625 1.230469 C 2.9375 1.210938 2.984375 1.195312 3.03125 1.179688 C 3.078125 1.15625 3.125 1.148438 3.171875 1.132812 L 3.242188 1.117188 C 3.265625 1.109375 3.285156 1.109375 3.304688 1.105469 L 3.363281 1.09375 C 3.382812 1.09375 3.398438 1.085938 3.4375 1.085938 L 3.636719 1.078125 L 4 1.074219 C 5.0625 1.070312 6.125 1.070312 7.179688 1.089844 C 7.367188 1.09375 7.660156 0.976562 7.757812 0.898438 C 7.9375 0.742188 7.699219 0.609375 7.34375 0.507812 C 6.75 0.335938 6.097656 0.214844 5.410156 0.132812 C 5.066406 0.09375 4.714844 0.0585938 4.355469 0.0351562 C 4.175781 0.0234375 3.996094 0.015625 3.816406 0.0078125 L 3.679688 0 L 3.523438 0 C 3.429688 0.00390625 3.351562 0 3.222656 0.015625 C 2.148438 0.125 1.21875 0.84375 0.808594 1.828125 C 0.703125 2.078125 0.640625 2.335938 0.601562 2.601562 C 0.59375 2.664062 0.589844 2.734375 0.585938 2.796875 C 0.578125 2.867188 0.574219 2.9375 0.574219 2.984375 L 0.5625 3.3125 L 0.53125 4.632812 C 0.5 6.390625 0.492188 8.148438 0.542969 9.914062 C 0.53125 10.351562 0.523438 10.789062 0.507812 11.226562 Z M 0.492188 12.265625 "/>
<path style=" stroke:none;fill-rule:nonzero;fill:rgb(100%,81.960785%,5.882353%);fill-opacity:1;" d="M 4.84375 7.238281 C 4.773438 7.234375 4.65625 7.347656 4.625 7.429688 C 4.550781 7.585938 4.640625 7.71875 4.78125 7.820312 C 5.230469 8.15625 5.777344 8.304688 6.335938 8.34375 C 7.679688 8.4375 9.015625 8.582031 10.367188 8.476562 C 10.535156 8.488281 10.703125 8.5 10.867188 8.507812 C 11.703125 8.554688 12.53125 8.570312 13.359375 8.515625 C 12.789062 9.054688 12.265625 9.648438 11.683594 10.167969 C 11.640625 10.207031 11.65625 10.351562 11.691406 10.429688 C 11.761719 10.582031 11.914062 10.625 12.0625 10.617188 C 12.5625 10.59375 12.984375 10.382812 13.332031 10.089844 C 14.011719 9.515625 14.710938 8.96875 15.328125 8.328125 L 15.34375 8.3125 C 15.578125 8.070312 15.570312 7.6875 15.328125 7.457031 C 15.175781 7.308594 15.015625 7.164062 14.851562 7.03125 C 14.761719 6.921875 14.675781 6.816406 14.585938 6.714844 C 14.011719 6.066406 13.410156 5.4375 12.703125 4.929688 C 12.507812 4.78125 12.257812 4.742188 12.058594 4.96875 C 11.882812 5.167969 11.863281 5.433594 12.015625 5.632812 C 12.296875 5.992188 12.574219 6.359375 12.902344 6.671875 C 13.171875 6.9375 13.453125 7.1875 13.742188 7.4375 C 13.28125 7.390625 12.820312 7.347656 12.367188 7.355469 C 11.476562 7.367188 10.585938 7.433594 9.691406 7.476562 C 8.09375 7.101562 6.460938 7.316406 4.84375 7.238281 Z M 4.84375 7.238281 "/>
</g>
</svg>
