<?xml version="1.0" encoding="UTF-8"?>
<svg xmlns="http://www.w3.org/2000/svg" xmlns:xlink="http://www.w3.org/1999/xlink" width="32px" height="32px" viewBox="0 0 32 32" version="1.1">
<g id="surface1">
<path style=" stroke:none;fill-rule:nonzero;fill:rgb(100%,81.960785%,5.882353%);fill-opacity:1;" d="M 0.984375 24.53125 L 0.96875 25.570312 L 0.96875 25.894531 L 0.984375 26.15625 C 0.984375 26.300781 1.023438 26.589844 1.054688 26.808594 C 1.207031 27.710938 1.523438 28.511719 2.015625 29.25 C 2.503906 29.976562 3.144531 30.59375 3.886719 31.058594 C 4.625 31.523438 5.472656 31.828125 6.335938 31.9375 C 6.550781 31.980469 6.765625 31.984375 6.980469 31.992188 C 7.085938 31.992188 7.210938 32.003906 7.292969 32 L 7.554688 31.992188 L 8.59375 31.972656 C 9.976562 31.9375 11.355469 31.894531 12.730469 31.820312 C 14.296875 31.742188 15.601562 31.445312 15.484375 30.855469 C 15.378906 30.3125 14.265625 29.917969 12.660156 29.859375 C 11.214844 29.804688 9.761719 29.753906 8.3125 29.699219 L 7.230469 29.667969 C 7.085938 29.65625 6.941406 29.648438 6.796875 29.628906 C 6.660156 29.597656 6.519531 29.589844 6.378906 29.542969 C 5.824219 29.40625 5.308594 29.152344 4.859375 28.808594 C 4.136719 28.253906 3.605469 27.441406 3.398438 26.542969 L 3.347656 26.25 C 3.332031 26.210938 3.328125 26.132812 3.328125 26.058594 L 3.3125 25.84375 L 3.308594 25.734375 L 3.308594 25.675781 L 3.300781 25.457031 L 3.292969 25.023438 L 3.261719 23.273438 L 3.117188 16.28125 C 3.308594 14.195312 3.417969 12.09375 3.484375 9.984375 C 3.515625 8.929688 3.542969 7.878906 3.554688 6.820312 L 3.5625 6.023438 L 3.5625 5.828125 L 3.574219 5.679688 C 3.585938 5.578125 3.574219 5.480469 3.601562 5.382812 C 3.640625 4.992188 3.769531 4.621094 3.933594 4.269531 C 4.257812 3.558594 4.839844 2.96875 5.527344 2.589844 L 5.785156 2.460938 C 5.878906 2.421875 5.96875 2.394531 6.0625 2.355469 C 6.152344 2.316406 6.25 2.296875 6.339844 2.269531 L 6.484375 2.230469 C 6.53125 2.21875 6.570312 2.21875 6.609375 2.210938 L 6.726562 2.191406 C 6.765625 2.1875 6.796875 2.171875 6.875 2.171875 L 7.273438 2.152344 L 8.003906 2.148438 C 10.125 2.140625 12.246094 2.140625 14.355469 2.179688 C 14.734375 2.1875 15.320312 1.957031 15.511719 1.800781 C 15.875 1.480469 15.398438 1.214844 14.683594 1.011719 C 13.5 0.671875 12.195312 0.429688 10.820312 0.265625 C 10.132812 0.183594 9.429688 0.117188 8.710938 0.0703125 C 8.351562 0.046875 7.992188 0.0273438 7.632812 0.0117188 L 7.359375 0 L 7.046875 0 C 6.863281 0.0078125 6.699219 0 6.445312 0.03125 C 4.296875 0.253906 2.4375 1.683594 1.617188 3.660156 C 1.402344 4.152344 1.285156 4.671875 1.199219 5.203125 C 1.1875 5.332031 1.179688 5.46875 1.167969 5.597656 C 1.152344 5.738281 1.148438 5.875 1.148438 5.972656 L 1.128906 6.628906 L 1.066406 9.265625 C 0.996094 12.777344 0.984375 16.300781 1.085938 19.832031 C 1.0625 20.707031 1.042969 21.574219 1.015625 22.449219 Z M 0.984375 24.53125 "/>
<path style=" stroke:none;fill-rule:nonzero;fill:rgb(100%,81.960785%,5.882353%);fill-opacity:1;" d="M 9.6875 14.476562 C 9.546875 14.46875 9.316406 14.695312 9.246094 14.855469 C 9.101562 15.171875 9.285156 15.441406 9.558594 15.644531 C 10.460938 16.316406 11.554688 16.609375 12.671875 16.6875 C 15.355469 16.875 18.035156 17.164062 20.738281 16.949219 C 21.070312 16.976562 21.402344 17 21.738281 17.019531 C 23.402344 17.105469 25.058594 17.144531 26.714844 17.027344 C 25.574219 18.105469 24.535156 19.296875 23.367188 20.335938 C 23.285156 20.414062 23.308594 20.707031 23.382812 20.859375 C 23.523438 21.164062 23.824219 21.25 24.125 21.238281 C 25.125 21.191406 25.964844 20.765625 26.664062 20.179688 C 28.023438 19.035156 29.425781 17.941406 30.660156 16.660156 L 30.691406 16.628906 C 31.152344 16.144531 31.140625 15.375 30.660156 14.914062 C 30.351562 14.617188 30.03125 14.332031 29.699219 14.058594 C 29.523438 13.847656 29.351562 13.632812 29.171875 13.429688 C 28.023438 12.132812 26.820312 10.878906 25.410156 9.855469 C 25.011719 9.5625 24.511719 9.488281 24.117188 9.933594 C 23.761719 10.335938 23.726562 10.867188 24.035156 11.265625 C 24.59375 11.980469 25.148438 12.714844 25.804688 13.347656 C 26.34375 13.875 26.90625 14.378906 27.480469 14.875 C 26.566406 14.78125 25.644531 14.695312 24.734375 14.710938 C 22.949219 14.734375 21.167969 14.867188 19.382812 14.953125 C 16.191406 14.199219 12.921875 14.632812 9.6875 14.476562 Z M 9.6875 14.476562 "/>
</g>
</svg>
