<svg width="24" height="24" xmlns="http://www.w3.org/2000/svg">
 <!-- Created with Method Draw - http://github.com/duopixel/Method-Draw/ -->

 <g>
  <title>background</title>
  <rect fill="none" id="canvas_background" height="26" width="26" y="-1" x="-1"/>
  <g display="none" overflow="visible" y="0" x="0" height="100%" width="100%" id="canvasGrid">
   <rect fill="url(#gridpattern)" stroke-width="0" y="0" x="0" height="100%" width="100%"/>
  </g>
 </g>
 <g>
  <title>Layer 1</title>
  <!-- Created with Method Draw - http://github.com/duopixel/Method-Draw/ -->
  <!-- Created with Method Draw - http://github.com/duopixel/Method-Draw/ -->
  <g transform="rotate(179.991, 11.9844, 12.0156)" id="svg_63">
   <g transform="matrix(0.0519254, 0, 0, 0.0488435, 32.3506, 54.4871)" stroke-width="0" id="svg_57"/>
   <g transform="matrix(0.0519254, 0, 0, 0.0488435, 32.3506, 54.4871)" stroke-width="3.92262" stroke="#CCCCCC" stroke-linejoin="round" stroke-linecap="round" id="svg_56"/>
   <g transform="matrix(0.0519254, 0, 0, 0.0488435, 32.3506, 54.4871)" id="svg_55">
    <g id="svg_59">
     <g id="svg_60">
      <path fill="#ffd10f" id="svg_61" d="m-622.31689,-738.80651l-0.2,15.9l0,2l0,0.5l0,1.5l0,1l0.2,4c0,2.2 0.6,6.6 1.1,10c2.3,13.8 7.2,26.1 14.7,37.4c7.5,11.1 17.3,20.6 28.7,27.7c11.3,7.1 24.3,11.8 37.5,13.5c3.3,0.6 6.6,0.7 9.9,0.8c1.6,0 3.5,0.2 4.8,0.1l4,-0.1l15.9,-0.3c21.2,-0.5 42.3,-1.2 63.4,-2.3c24,-1.2 44,-5.8 42.2,-14.8c-1.6,-8.3 -18.7,-14.4 -43.3,-15.3c-22.1,-0.8 -44.4,-1.6 -66.6,-2.4l-16.6,-0.5c-2.2,-0.2 -4.4,-0.3 -6.6,-0.6c-2.1,-0.5 -4.3,-0.6 -6.4,-1.3c-8.5,-2.1 -16.4,-6 -23.3,-11.3c-11.1,-8.5 -19.2,-20.9 -22.4,-34.7l-0.8,-4.5c-0.2,-0.6 -0.3,-1.8 -0.3,-2.9l-0.2,-3.3l-0.1,-1.7l0,-0.4l0,-0.2l0,-0.3l-0.1,-3.3l-0.1,-6.7l-0.5,-26.8l-2.2,-107.1c2.9,-32 4.6,-64.2 5.6,-96.5c0.5,-16.2 0.9,-32.3 1.1,-48.5l0.1,-12.2l0,-3l0.2,-2.3c0.2,-1.5 0,-3 0.4,-4.5c0.6,-6 2.6,-11.7 5.1,-17.1c5,-10.9 13.9,-19.9 24.4,-25.7l4,-2c1.4,-0.6 2.8,-1 4.2,-1.6c1.4,-0.6 2.9,-0.9 4.3,-1.3l2.2,-0.6c0.7,-0.2 1.3,-0.2 1.9,-0.3l1.8,-0.3c0.6,-0.1 1.1,-0.3 2.3,-0.3l6.1,-0.3l11.2,-0.1c32.5,-0.1 65,-0.1 97.3,0.5c5.8,0.1 14.8,-3.4 17.7,-5.8c5.6,-4.9 -1.7,-9 -12.7,-12.1c-18.1,-5.2 -38.1,-8.9 -59.2,-11.4c-10.5,-1.3 -21.3,-2.3 -32.3,-3c-5.5,-0.4 -11,-0.7 -16.5,-0.9l-4.2,-0.2l-1,0l-0.5,0l-1.2,0l-2.1,0c-2.8,0.1 -5.3,0 -9.2,0.5c-32.9,3.4 -61.4,25.3 -74,55.6c-3.3,7.5 -5.1,15.5 -6.4,23.6c-0.2,2 -0.3,4.1 -0.5,6.1c-0.2,2.1 -0.3,4.2 -0.3,5.7l-0.3,10.1l-0.9,40.4c-1.1,53.8 -1.3,107.8 0.3,161.9c-0.4,13.4 -0.7,26.7 -1.1,40.1l-0.5,31.9z"/>
      <path fill="#ffd10f" id="svg_62" d="m-488.91689,-892.90651c-2.2,-0.1 -5.7,3.4 -6.8,5.8c-2.2,4.9 0.6,9 4.8,12.1c13.8,10.3 30.6,14.8 47.7,16c41.1,2.9 82.2,7.3 123.6,4c5.1,0.4 10.2,0.8 15.3,1.1c25.5,1.3 50.9,1.9 76.3,0.1c-17.5,16.5 -33.4,34.8 -51.3,50.7c-1.3,1.2 -0.9,5.7 0.2,8c2.2,4.7 6.8,6 11.4,5.8c15.3,-0.7 28.2,-7.2 38.9,-16.2c20.8,-17.5 42.3,-34.3 61.2,-53.9l0.5,-0.5l0,0c7.1,-7.4 6.9,-19.2 -0.5,-26.3c-4.7,-4.5 -9.6,-8.9 -14.7,-13.1c-2.7,-3.2 -5.3,-6.5 -8.1,-9.6c-17.6,-19.9 -36,-39.1 -57.6,-54.8c-6.1,-4.5 -13.8,-5.6 -19.8,1.2c-5.5,6.2 -6,14.3 -1.3,20.4c8.6,11 17.1,22.2 27.1,31.9c8.3,8.1 16.9,15.8 25.7,23.4c-14,-1.4 -28.1,-2.7 -42.1,-2.5c-27.3,0.4 -54.6,2.4 -82,3.7c-48.9,-11.5 -99,-4.9 -148.5,-7.3z"/>
     </g>
    </g>
   </g>
  </g>
 </g>
</svg>