<svg width="32" height="32" xmlns="http://www.w3.org/2000/svg">
 <!-- Created with Method Draw - http://github.com/duopixel/Method-Draw/ -->

 <g>
  <title>background</title>
  <rect fill="none" id="canvas_background" height="34" width="34" y="-1" x="-1"/>
  <g display="none" overflow="visible" y="0" x="0" height="100%" width="100%" id="canvasGrid">
   <rect fill="url(#gridpattern)" stroke-width="0" y="0" x="0" height="100%" width="100%"/>
  </g>
 </g>
 <g>
  <title>Layer 1</title>
  <g style="vector-effect: non-scaling-stroke;" transform="translate(0.0469237, 0.00374706) scale(1.07353, 1.05689) translate(-0.0469237, -0.00374706)" id="svg_8">
   <g style="vector-effect: non-scaling-stroke;" transform="matrix(0.463484, 0, 0, 0.472997, 15.1793, -0.026524)" id="svg_4">
    <path style="vector-effect: non-scaling-stroke;" id="svg_6" fill-rule="nonzero" fill="rgb(100%,81.960785%,5.882353%)" d="m31.51105,49.02884l0.02734,2.07422l0,0.64844l-0.02734,0.52344c0,0.28515 -0.08203,0.85937 -0.15235,1.30078c-0.32031,1.80078 -1.0039,3.40234 -2.04687,4.875c-1.04688,1.44531 -2.41406,2.68359 -4,3.60547c-1.57813,0.92578 -3.38672,1.53906 -5.22656,1.75781c-0.46094,0.07813 -0.92188,0.09375 -1.37891,0.10547c-0.22656,0 -0.48828,0.02734 -0.67188,0.01172l-0.55468,-0.01172l-2.21875,-0.03906c-2.95313,-0.06641 -5.89453,-0.15625 -8.83594,-0.30078c-3.34375,-0.15625 -6.12891,-0.75391 -5.87891,-1.92579c0.22266,-1.08203 2.60547,-1.875 6.03516,-1.99218c3.07812,-0.10547 6.1875,-0.21094 9.28125,-0.3125l2.3125,-0.06641c0.30469,-0.02734 0.61328,-0.03906 0.91797,-0.07812c0.29297,-0.06641 0.60156,-0.07813 0.89453,-0.16797c1.18359,-0.27344 2.28516,-0.78125 3.24609,-1.47266c1.54688,-1.10937 2.67578,-2.72266 3.1211,-4.51953l0.11328,-0.58594c0.02734,-0.07812 0.03906,-0.23437 0.03906,-0.3789l0.03125,-0.42969l0.01172,-0.22266l0,-0.11719l0.01562,-0.42968l0.01172,-0.8711l0.07032,-3.49218l0.30859,-13.95313c-0.40625,-4.16797 -0.64063,-8.36328 -0.78125,-12.57031c-0.07031,-2.10938 -0.125,-4.20703 -0.15234,-6.31641l-0.01563,-1.58984l0,-0.39063l-0.02734,-0.30078c-0.02735,-0.19531 0,-0.39062 -0.05469,-0.58594c-0.08594,-0.78125 -0.36328,-1.52343 -0.71094,-2.22656c-0.69922,-1.42187 -1.9375,-2.59375 -3.40234,-3.34765l-0.5586,-0.26172c-0.19531,-0.07813 -0.38671,-0.12891 -0.58203,-0.20703c-0.19531,-0.07813 -0.40625,-0.11719 -0.60156,-0.16797l-0.30469,-0.08203c-0.09765,-0.02344 -0.18359,-0.02344 -0.26562,-0.03907l-0.25,-0.03906c-0.08594,-0.01172 -0.15625,-0.03906 -0.32031,-0.03906l-0.85157,-0.03906l-1.5625,-0.01172c-4.52734,-0.01172 -9.05859,-0.01172 -13.55859,0.0664c-0.80859,0.01172 -2.0625,-0.44531 -2.46484,-0.75781c-0.78125,-0.63672 0.23437,-1.17187 1.76953,-1.57422c2.51953,-0.67969 5.30859,-1.16015 8.25,-1.48437c1.46093,-0.17188 2.96875,-0.30078 4.5,-0.39063c0.76562,-0.05469 1.53515,-0.09375 2.30078,-0.11719l0.58594,-0.02734l0.66796,0c0.39063,0.01172 0.73829,0 1.28125,0.06641c4.58594,0.4414 8.5586,3.29297 10.3125,7.24218c0.46094,0.97657 0.71094,2.01954 0.89454,3.07422c0.02734,0.26172 0.03906,0.53516 0.0664,0.79297c0.02735,0.27344 0.04297,0.54688 0.04297,0.74219l0.04297,1.31641l0.125,5.26171c0.15234,7.01172 0.17969,14.04297 -0.04297,21.08985c0.05469,1.74609 0.09766,3.48047 0.15234,5.22656l0.07032,4.15234zm0,0"/>
    <path style="vector-effect: non-scaling-stroke;" id="svg_7" fill-rule="nonzero" fill="rgb(100%,81.960785%,5.882353%)" d="m12.9212,28.95853c0.30469,-0.01562 0.79297,0.44141 0.94922,0.75391c0.30469,0.63672 -0.08594,1.17187 -0.67187,1.57422c-1.92188,1.34375 -4.26172,1.92968 -6.64453,2.08593c-5.73047,0.37891 -11.45704,0.95313 -17.22657,0.51954c-0.71093,0.05468 -1.42187,0.10546 -2.13281,0.14453c-3.55469,0.16797 -7.09375,0.24609 -10.63281,0.01172c2.4375,2.15234 4.65625,4.53515 7.14844,6.60546c0.17968,0.15625 0.125,0.74219 -0.02735,1.04297c-0.30859,0.61328 -0.94922,0.78125 -1.58984,0.75391c-2.13281,-0.08984 -3.92969,-0.9375 -5.42188,-2.10938c-2.89843,-2.27734 -5.89453,-4.46875 -8.52734,-7.01953l-0.07031,-0.0664c-0.98829,-0.96485 -0.96094,-2.5 0.07031,-3.42578c0.65625,-0.58594 1.33984,-1.16016 2.04687,-1.70704c0.37891,-0.41796 0.74219,-0.84765 1.12891,-1.25c2.45313,-2.59375 5.01953,-5.09375 8.02734,-7.13671c0.85157,-0.58985 1.92579,-0.73047 2.76172,0.15625c0.76563,0.80468 0.83594,1.85937 0.17969,2.65625c-1.19922,1.43359 -2.38281,2.89062 -3.77734,4.15625c-1.15625,1.05468 -2.35547,2.05859 -3.58203,3.04687c1.95312,-0.18359 3.91796,-0.35156 5.86718,-0.32422c3.80469,0.05078 7.60938,0.3125 11.42969,0.48047c6.81641,-1.49609 13.79688,-0.63672 20.69531,-0.94922zm0,0"/>
   </g>
  </g>
 </g>
</svg>