<?xml version="1.0" standalone="no"?>
<!DOCTYPE svg PUBLIC "-//W3C//DTD SVG 20010904//EN"
 "http://www.w3.org/TR/2001/REC-SVG-20010904/DTD/svg10.dtd">
<svg version="1.0" xmlns="http://www.w3.org/2000/svg"
 width="379.000000pt" height="187.000000pt" viewBox="0 0 379.000000 187.000000"
 preserveAspectRatio="xMidYMid meet">

<g transform="translate(0.000000,187.000000) scale(0.100000,-0.100000)"
fill="#000000" stroke="none">
<path d="M1617 1756 c-213 -270 -277 -355 -277 -364 0 -21 34 -23 50 -3 110
139 346 444 348 449 1 4 -6 12 -15 18 -16 9 -30 -4 -106 -100z"/>
<path d="M1966 1021 c-62 -21 -116 -65 -142 -116 -25 -49 -30 -138 -9 -191 33
-88 92 -138 231 -195 141 -58 202 -113 224 -201 22 -88 -31 -192 -119 -231
-110 -48 -251 -12 -333 85 -32 39 -43 46 -54 37 -8 -6 -14 -18 -14 -26 0 -23
91 -107 145 -133 68 -33 198 -40 259 -14 101 43 154 113 163 214 12 134 -42
214 -196 286 -53 25 -111 53 -130 63 -166 79 -187 279 -40 366 26 15 51 20
105 20 61 -1 78 -5 115 -29 24 -15 55 -41 69 -57 23 -26 27 -27 44 -14 19 15
19 16 -20 56 -78 82 -195 113 -298 80z"/>
<path d="M10 525 l0 -495 25 0 25 0 0 240 c0 135 4 240 9 240 5 0 23 -17 41
-37 18 -21 56 -63 84 -93 67 -72 233 -254 281 -307 29 -32 46 -43 67 -43 17 0
28 4 26 9 -3 10 -168 195 -335 375 -57 61 -103 116 -103 121 0 6 22 33 48 60
47 50 309 331 366 393 l30 32 -30 0 c-27 0 -57 -28 -248 -230 -120 -126 -222
-230 -227 -230 -5 0 -9 99 -9 230 l0 230 -25 0 -25 0 0 -495z"/>
<path d="M1100 525 l0 -495 245 0 c238 0 245 1 245 20 0 19 -8 20 -217 22
l-218 3 -3 222 -2 223 165 0 c164 0 165 0 165 23 0 22 0 22 -142 19 -78 -2
-153 -1 -165 3 l-23 5 0 205 0 205 221 0 c205 0 220 1 217 18 -3 16 -24 17
-246 20 l-242 2 0 -495z"/>
<path d="M2450 1000 c0 -19 8 -20 168 -22 l167 -3 0 -473 c0 -451 1 -473 19
-478 10 -3 22 -2 27 3 5 5 10 220 11 478 l3 470 168 3 c159 2 167 3 167 22 0
20 -8 20 -365 20 -357 0 -365 0 -365 -20z"/>
<path d="M3310 369 l-35 -31 36 21 c20 12 48 21 62 21 14 0 29 5 32 10 4 6 -8
10 -27 10 -24 0 -44 -9 -68 -31z"/>
<path d="M3658 383 c92 -4 99 -11 51 -58 -17 -16 -44 -46 -60 -66 l-29 -36 42
-6 c64 -9 92 -35 96 -90 3 -39 -1 -51 -22 -72 -35 -35 -103 -35 -145 1 -17 14
-28 31 -25 37 4 7 1 6 -7 -1 -12 -11 -9 -18 18 -42 18 -16 44 -32 58 -36 64
-16 137 27 150 88 7 29 -24 106 -40 100 -4 -2 -11 1 -14 6 -3 6 -21 16 -39 24
l-34 13 22 25 c12 14 31 36 42 50 11 14 30 35 41 48 l20 22 -104 -2 c-102 -2
-103 -2 -21 -5z"/>
<path d="M3445 354 c46 -50 21 -116 -62 -168 -60 -38 -113 -103 -113 -138 l0
-28 113 2 112 2 -104 3 -103 4 6 31 c8 40 27 61 99 110 59 40 97 88 97 122 0
26 -39 86 -55 86 -9 0 -5 -9 10 -26z"/>
<path d="M3277 323 c-10 -9 -9 -23 2 -23 5 0 11 7 15 15 5 15 -5 20 -17 8z"/>
<path d="M750 91 c-14 -27 -13 -37 6 -55 22 -23 41 -20 59 8 13 19 14 29 5 45
-14 27 -56 28 -70 2z"/>
</g>
</svg>
