<?xml version="1.0" standalone="no"?>
<!DOCTYPE svg PUBLIC "-//W3C//DTD SVG 20010904//EN"
 "http://www.w3.org/TR/2001/REC-SVG-20010904/DTD/svg10.dtd">
<svg version="1.0" xmlns="http://www.w3.org/2000/svg"
 width="2483.000000pt" height="1653.000000pt" viewBox="0 0 2483.000000 1653.000000"
 preserveAspectRatio="xMidYMid meet">

<g transform="translate(0.000000,1653.000000) scale(0.100000,-0.100000)"
fill="#000000" stroke="none">
<path d="M11139 16362 c-19 -26 -137 -177 -260 -337 -124 -159 -366 -472 -539
-695 -173 -223 -413 -533 -535 -690 -121 -157 -347 -447 -500 -645 -154 -198
-341 -440 -417 -537 -76 -98 -139 -182 -140 -187 -2 -4 61 -58 139 -119 l143
-112 207 268 c196 252 439 566 948 1222 122 157 347 447 500 645 334 431 764
985 777 1002 6 8 -34 44 -132 120 -77 59 -144 109 -148 110 -4 1 -23 -19 -43
-45z"/>
<path d="M13280 10964 c-291 -27 -542 -99 -745 -215 -456 -259 -721 -694 -755
-1238 -19 -307 29 -578 145 -824 178 -379 503 -676 1023 -936 127 -63 226
-104 612 -256 595 -234 1003 -551 1171 -909 89 -192 114 -314 114 -561 0 -162
-4 -206 -24 -294 -73 -330 -247 -603 -506 -794 -96 -71 -307 -175 -426 -211
-244 -73 -557 -91 -814 -46 -307 53 -600 185 -844 379 -175 140 -382 376 -492
562 -23 38 -45 68 -48 67 -24 -10 -291 -205 -291 -212 0 -18 109 -187 194
-300 271 -361 666 -640 1101 -779 358 -115 838 -131 1200 -41 360 90 696 287
918 541 243 278 378 606 409 991 39 502 -118 942 -462 1292 -282 285 -630 492
-1232 731 -215 86 -513 232 -655 322 -402 257 -612 523 -694 882 -32 143 -32
405 1 550 55 246 151 426 314 589 206 205 459 316 795 347 570 52 1067 -176
1443 -661 40 -52 77 -97 81 -99 10 -4 287 187 287 198 0 17 -193 251 -283 343
-376 383 -803 570 -1332 582 -88 2 -180 2 -205 0z"/>
<path d="M140 7635 l0 -3255 190 0 190 0 2 1597 3 1597 315 -344 c173 -189
439 -480 590 -645 151 -165 392 -428 535 -585 263 -287 556 -608 1116 -1220
168 -184 318 -350 333 -368 l28 -32 259 0 c142 0 259 3 259 6 0 4 -38 48 -84
98 -46 50 -325 357 -621 681 -296 325 -599 658 -675 740 -75 83 -307 337 -515
565 -208 228 -514 563 -679 744 -166 182 -334 366 -373 410 l-73 81 43 45 c88
93 388 411 542 575 149 159 613 652 959 1020 83 88 194 205 246 260 52 55 235
249 405 430 170 182 312 332 315 335 36 35 480 510 480 514 0 3 -109 6 -242 6
l-243 0 -450 -477 c-247 -263 -599 -635 -781 -828 -726 -769 -1070 -1135
-1368 -1452 -171 -182 -314 -332 -318 -332 -5 -1 -8 694 -8 1544 l0 1545 -190
0 -190 0 0 -3255z"/>
<path d="M7220 7635 l0 -3255 1625 0 1625 0 0 175 0 175 -1435 0 -1435 0 0
1425 0 1425 1095 0 1095 0 0 175 0 175 -1095 0 -1095 0 0 1305 0 1305 1410 0
1410 0 0 175 0 175 -1600 0 -1600 0 0 -3255z"/>
<path d="M16010 10715 l0 -175 1090 0 1090 0 0 -3080 0 -3080 190 0 190 0 0
3080 0 3080 1090 0 1090 0 0 175 0 175 -2370 0 -2370 0 0 -175z"/>
<path d="M21970 6813 c-141 -21 -284 -83 -381 -165 -125 -105 -218 -283 -253
-485 -6 -36 -3 -38 76 -48 l55 -7 8 39 c23 124 97 273 178 360 114 121 241
175 417 175 280 2 474 -136 536 -382 21 -83 15 -261 -12 -335 -64 -180 -213
-328 -554 -553 -218 -143 -312 -214 -418 -316 -219 -210 -302 -411 -302 -732
l0 -64 725 0 725 0 0 70 0 70 -645 0 -645 0 0 58 c0 82 32 199 80 291 87 167
216 285 564 515 356 236 490 365 581 559 110 233 74 531 -88 725 -91 109 -216
181 -372 213 -81 17 -208 23 -275 12z"/>
<path d="M23340 6725 l0 -65 546 0 c312 0 544 -4 542 -9 -1 -5 -189 -225 -415
-490 -333 -388 -413 -488 -413 -510 l0 -29 193 -5 c225 -6 313 -23 447 -90
296 -146 404 -501 247 -812 -67 -133 -228 -252 -392 -290 -83 -20 -246 -22
-330 -5 -187 37 -376 195 -468 391 -12 27 -25 48 -29 49 -6 0 -101 -54 -117
-67 -11 -8 61 -134 119 -211 141 -188 342 -293 586 -309 251 -15 471 63 634
227 144 143 210 306 210 515 0 124 -21 222 -69 320 -117 238 -350 381 -676
416 -55 6 -101 12 -101 13 -1 0 184 217 412 481 357 415 413 484 413 513 l1
32 -670 0 -670 0 0 -65z"/>
<path d="M5092 4954 c-61 -23 -145 -103 -173 -166 -32 -73 -33 -202 -2 -270
53 -116 154 -182 283 -182 124 0 226 59 286 166 27 49 29 61 29 153 0 85 -3
106 -23 142 -32 60 -78 110 -130 141 -39 22 -59 27 -137 29 -63 2 -103 -2
-133 -13z"/>
<path d="M12820 1316 l0 -1196 65 0 65 0 2 1009 3 1010 459 -690 c425 -637
462 -690 485 -687 22 3 94 105 483 688 l458 685 2 -1005 3 -1005 68 -3 67 -3
0 1196 0 1195 -27 0 c-26 0 -69 -62 -538 -770 -280 -423 -512 -769 -515 -769
-3 0 -235 345 -516 767 -444 667 -514 767 -537 770 l-27 3 0 -1195z"/>
<path d="M3540 1280 l0 -1161 68 3 67 3 3 496 2 497 253 5 c276 5 346 15 474
69 258 107 399 298 411 559 14 324 -177 565 -526 661 -70 20 -109 22 -414 26
l-338 4 0 -1162z m715 1011 c126 -33 201 -75 281 -155 106 -108 143 -199 144
-357 0 -243 -143 -423 -400 -500 -67 -20 -102 -23 -337 -27 l-263 -4 0 537 0
537 248 -5 c211 -4 259 -7 327 -26z"/>
<path d="M5322 1283 l3 -1158 578 -3 577 -2 0 65 0 65 -510 0 -510 0 0 505 0
505 390 0 390 0 0 65 0 65 -390 0 -390 0 0 465 0 465 505 0 505 0 0 60 0 60
-575 0 -575 0 2 -1157z"/>
<path d="M7020 1280 l0 -1160 65 0 65 0 0 510 0 510 213 0 212 -1 92 -137
c261 -391 577 -859 588 -870 8 -9 35 -12 89 -10 l77 3 -49 70 c-26 39 -149
221 -274 405 -124 184 -257 382 -297 439 -39 58 -71 108 -71 111 0 3 36 17 80
29 186 54 322 149 407 284 70 111 103 273 84 410 -40 285 -244 480 -572 547
-84 17 -137 20 -403 20 l-306 0 0 -1160z m725 1010 c234 -64 385 -217 417
-422 33 -221 -73 -424 -272 -521 -140 -68 -281 -90 -560 -85 l-175 3 -3 515
c-1 283 0 521 3 529 4 11 50 12 258 8 217 -4 263 -8 332 -27z"/>
<path d="M8940 1280 l0 -1161 68 3 67 3 3 538 2 537 370 0 370 0 0 60 0 60
-370 0 -370 0 0 500 0 500 485 0 485 0 0 60 0 60 -555 0 -555 0 0 -1160z"/>
<path d="M10500 1683 c0 -809 2 -850 51 -1009 30 -99 100 -229 165 -308 200
-242 564 -336 882 -227 280 97 466 339 527 688 12 74 15 210 15 851 l0 762
-65 0 -64 0 -3 -787 -3 -788 -27 -97 c-38 -140 -97 -254 -174 -337 -81 -88
-155 -137 -264 -175 -78 -27 -96 -30 -215 -30 -119 0 -137 3 -216 30 -269 95
-426 316 -468 659 -7 58 -11 346 -11 808 l0 717 -65 0 -65 0 0 -757z"/>
<path d="M15672 1283 l3 -1158 578 -3 577 -2 0 65 0 65 -510 0 -510 0 0 505 0
505 390 0 390 0 0 65 0 65 -390 0 -390 0 0 465 0 465 500 0 500 0 0 60 0 60
-570 0 -570 0 2 -1157z"/>
</g>
</svg>
